<svg width="16" height="17" viewBox="0 0 16 17" fill="none" xmlns="http://www.w3.org/2000/svg">
<path d="M7.94798 3.95456C11.1309 2.8695 12.7223 2.32698 13.5783 3.18294C14.4342 4.0389 13.8917 5.63034 12.8066 8.81321L12.0678 10.9807C11.2344 13.4251 10.8178 14.6473 10.131 14.7484C9.94631 14.7756 9.75517 14.7593 9.57248 14.7006C8.89297 14.4824 8.53377 13.1938 7.81538 10.6165C7.65604 10.0448 7.57637 9.75901 7.39494 9.5407C7.34228 9.47734 7.28386 9.41892 7.2205 9.36626C7.00219 9.18483 6.71636 9.10516 6.1447 8.94582C3.56741 8.22743 2.27876 7.86823 2.0606 7.18872C2.00195 7.00603 1.98558 6.81489 2.01277 6.63023C2.11392 5.94341 3.33613 5.52676 5.78054 4.69345L7.94798 3.95456Z" stroke="#2B50E6" style="stroke:#2B50E6;stroke:color(display-p3 0.1686 0.3137 0.9020);stroke-opacity:1;" stroke-width="1.5"/>
</svg>
